<?xml version="1.0"?>
<svg xmlns="http://www.w3.org/2000/svg" xmlns:xlink="http://www.w3.org/1999/xlink" id="Layer_1" data-name="Layer 1" viewBox="0 0 512 512" width="512" height="512"><defs><linearGradient id="linear-gradient" x1="256" y1="40" x2="256" y2="482.547" gradientUnits="userSpaceOnUse"><stop offset="0" stop-color="#00efd1"/><stop offset="1" stop-color="#00acea"/></linearGradient><linearGradient id="linear-gradient-2" x1="256.029" y1="40" x2="256.029" y2="482.547" xlink:href="#linear-gradient"/><linearGradient id="linear-gradient-3" x1="217.045" y1="40" x2="217.045" y2="482.547" xlink:href="#linear-gradient"/><linearGradient id="linear-gradient-4" x1="295.012" y1="40" x2="295.012" y2="482.547" xlink:href="#linear-gradient"/><linearGradient id="linear-gradient-5" x1="255.996" y1="40" x2="255.996" y2="482.547" xlink:href="#linear-gradient"/></defs><title>Laptop development</title><path d="M492.312,394H477V143.6A46.75,46.75,0,0,0,430.307,97H372.1a6.019,6.019,0,0,0-1.34-6.305L342.8,62.45a6,6,0,0,0-8.093-.4L315.127,78.292a116,116,0,0,0-30.468-12.846L282.2,40.227A5.835,5.835,0,0,0,276.224,35h-40.1a5.836,5.836,0,0,0-5.972,5.228l-2.462,25.316a112.173,112.173,0,0,0-30.506,12.767L177.638,62.083a6,6,0,0,0-8.068.359L141.262,90.674A6.017,6.017,0,0,0,139.9,97h-58.2A46.75,46.75,0,0,0,35,143.6V394H19.688A5.428,5.428,0,0,0,14,399.621v31.195A46.028,46.028,0,0,0,60.259,477H451.741A46.028,46.028,0,0,0,498,430.816V399.621A5.428,5.428,0,0,0,492.312,394ZM174.182,74.781l18.7,15.5a6,6,0,0,0,7.14.386,100.553,100.553,0,0,1,34.487-14.5,5.782,5.782,0,0,0,4.711-5.094L241.568,47h29.209l2.352,24.074a5.891,5.891,0,0,0,4.722,5.193,103.983,103.983,0,0,1,34.543,14.494,6,6,0,0,0,7.073-.454l18.671-15.492L358.411,95.29,342.894,114a6,6,0,0,0-.377,7.15,100.567,100.567,0,0,1,14.553,34.433,6.187,6.187,0,0,0,5.445,4.695L387,162.631v29.157l-24.146,2.346a6.093,6.093,0,0,0-5.353,4.67A104.771,104.771,0,0,1,342.87,233.31a6,6,0,0,0,.389,7.1L358.744,259.1l-20.575,20.529-18.7-15.5a6,6,0,0,0-7.141-.386,100.545,100.545,0,0,1-34.487,14.5,6.115,6.115,0,0,0-4.712,5.388L270.777,308H241.568l-2.352-24.368a6.057,6.057,0,0,0-4.722-5.34,104.2,104.2,0,0,1-34.543-14.567,6,6,0,0,0-7.073.416l-18.7,15.5-20.571-20.532,15.5-18.689a6,6,0,0,0,.377-7.153,100.564,100.564,0,0,1-14.553-34.434,6.189,6.189,0,0,0-5.445-4.7L125,191.781v-29.15l24.485-2.353a6.092,6.092,0,0,0,5.359-4.67A104.792,104.792,0,0,1,169.475,121.1a6,6,0,0,0-.389-7.1L153.6,95.31Zm-55.6,128.42,25.56,2.465a112.464,112.464,0,0,0,12.9,30.453l-16.178,19.535a6,6,0,0,0,.391,8.077l28.313,28.251a6,6,0,0,0,8.07.372l19.582-16.235a116.028,116.028,0,0,0,30.469,12.846l2.463,25.513A6.089,6.089,0,0,0,236.121,320h40.1a6.089,6.089,0,0,0,5.972-5.522l2.463-25.462a112.394,112.394,0,0,0,30.5-12.842l19.544,16.192a6,6,0,0,0,8.067-.378l28.308-28.254a6,6,0,0,0,.381-8.078l-16.221-19.564A116.517,116.517,0,0,0,368.1,205.663l25.32-2.462A6.143,6.143,0,0,0,399,197.229V157.183A6.162,6.162,0,0,0,395.555,152H425V356H87V152h29.445A6.162,6.162,0,0,0,113,157.183v40.046A6.141,6.141,0,0,0,118.583,203.2ZM47,143.6A34.736,34.736,0,0,1,81.693,109h67.7l7.708,9.343A103.6,103.6,0,0,0,146.953,140H81.159A6.08,6.08,0,0,0,75,145.932V362.263A5.92,5.92,0,0,0,81.159,368H430.841A5.92,5.92,0,0,0,437,362.263V145.932A6.08,6.08,0,0,0,430.841,140H365.1a101.383,101.383,0,0,0-10.183-21.685L362.605,109h67.7A34.736,34.736,0,0,1,465,143.6V394H315.518a5.829,5.829,0,0,0-4.412,1.744l-8.234,9.025A34.753,34.753,0,0,1,277.452,416h-42.9a34.845,34.845,0,0,1-25.42-11.326l-8.234-8.837A5.909,5.909,0,0,0,196.482,394H47Zm439,287.22A34.016,34.016,0,0,1,451.741,465H60.259A34.016,34.016,0,0,1,26,430.816V406H193.852l6.453,7a46.692,46.692,0,0,0,34.243,15h42.9A46.7,46.7,0,0,0,311.7,413l6.452-7H486Z" style="fill:url(#linear-gradient)"/><path d="M256.029,263.464a86.258,86.258,0,1,0-86.378-86.258A86.415,86.415,0,0,0,256.029,263.464Zm0-160.516a74.258,74.258,0,1,1-74.378,74.258A74.4,74.4,0,0,1,256.029,102.948Z" style="fill:url(#linear-gradient-2)"/><path d="M195.68,181.775l35.493,26.839a6,6,0,1,0,7.237-9.571L209.246,176.99l29.164-22.053a6,6,0,0,0-7.237-9.572L195.68,172.2a6,6,0,0,0,0,9.571Z" style="fill:url(#linear-gradient-3)"/><path d="M272.48,207.447a6,6,0,0,0,8.4,1.167l35.494-26.839a6,6,0,0,0,0-9.571l-35.494-26.839a6,6,0,0,0-7.237,9.572l29.165,22.053-29.165,22.053A6,6,0,0,0,272.48,207.447Z" style="fill:url(#linear-gradient-4)"/><path d="M249.04,223.165a6,6,0,0,0,6.831-5.035l12.116-80.052a6,6,0,1,0-11.865-1.8l-12.117,80.052A6,6,0,0,0,249.04,223.165Z" style="fill:url(#linear-gradient-5)"/></svg>
