<svg height="512" viewBox="0 0 64 64" width="512" xmlns="http://www.w3.org/2000/svg" xmlns:xlink="http://www.w3.org/1999/xlink"><linearGradient id="New_Gradient_Swatch_3" gradientUnits="userSpaceOnUse" x1="32" x2="32" y1="65.565" y2="4.695"><stop offset="0" stop-color="#006df0"/><stop offset="1" stop-color="#00e7f0"/></linearGradient><linearGradient id="New_Gradient_Swatch_3-5" x1="17" x2="17" xlink:href="#New_Gradient_Swatch_3" y1="65.565" y2="4.695"/><linearGradient id="New_Gradient_Swatch_3-6" x1="22.5" x2="22.5" xlink:href="#New_Gradient_Swatch_3" y1="65.565" y2="4.695"/><linearGradient id="New_Gradient_Swatch_3-7" x1="33.5" x2="33.5" xlink:href="#New_Gradient_Swatch_3" y1="65.565" y2="4.695"/><linearGradient id="New_Gradient_Swatch_3-8" x1="28" x2="28" xlink:href="#New_Gradient_Swatch_3" y1="65.565" y2="4.695"/><linearGradient id="New_Gradient_Swatch_3-9" x1="23" x2="23" xlink:href="#New_Gradient_Swatch_3" y1="65.565" y2="4.695"/><linearGradient id="New_Gradient_Swatch_3-10" x1="29" x2="29" xlink:href="#New_Gradient_Swatch_3" y1="65.565" y2="4.695"/><linearGradient id="New_Gradient_Swatch_3-12" x1="44.5" x2="44.5" xlink:href="#New_Gradient_Swatch_3" y1="65.565" y2="4.695"/><linearGradient id="New_Gradient_Swatch_3-13" x1="24" x2="24" xlink:href="#New_Gradient_Swatch_3" y1="65.565" y2="4.695"/><linearGradient id="New_Gradient_Swatch_3-14" x1="33" x2="33" xlink:href="#New_Gradient_Swatch_3" y1="65.565" y2="4.695"/><linearGradient id="New_Gradient_Swatch_3-15" x1="43" x2="43" xlink:href="#New_Gradient_Swatch_3" y1="65.565" y2="4.695"/><linearGradient id="New_Gradient_Swatch_3-16" x1="38" x2="38" xlink:href="#New_Gradient_Swatch_3" y1="65.565" y2="4.695"/><g fill="url(#New_Gradient_Swatch_3)"><path d="m32 11a3 3 0 1 1 3-3 3 3 0 0 1 -3 3zm0-4a1 1 0 1 0 1 1 1 1 0 0 0 -1-1z"/><path d="m32 14c-5.387 0-9.6-5.153-9.778-5.373a1 1 0 0 1 0-1.254c.178-.22 4.391-5.373 9.778-5.373s9.6 5.153 9.778 5.373a1 1 0 0 1 0 1.254c-.178.22-4.391 5.373-9.778 5.373zm-7.654-6c1.216 1.266 4.237 4 7.654 4s6.438-2.734 7.654-4c-1.216-1.266-4.237-4-7.654-4s-6.438 2.734-7.654 4z"/><path d="m53 16h-42a5.006 5.006 0 0 0 -5 5v26a5.006 5.006 0 0 0 5 5h15v4h-5a3 3 0 0 0 0 6h23a3 3 0 0 0 0-6h-6v-4h15a5.006 5.006 0 0 0 5-5v-26a5.006 5.006 0 0 0 -5-5zm-8 43a1 1 0 0 1 -1 1h-23a1 1 0 0 1 0-2h23a1 1 0 0 1 1 1zm-9-3h-8v-4h8zm20-9a3 3 0 0 1 -3 3h-42a3 3 0 0 1 -3-3v-26a3 3 0 0 1 3-3h42a3 3 0 0 1 3 3z"/><path d="m53 20h-42a1 1 0 0 0 -1 1v26a1 1 0 0 0 1 1h42a1 1 0 0 0 1-1v-26a1 1 0 0 0 -1-1zm-1 2v2h-40v-2zm-40 24v-20h40v20z"/></g><path d="m17 28a1 1 0 0 0 -1 1v14a1 1 0 0 0 2 0v-14a1 1 0 0 0 -1-1z" fill="url(#New_Gradient_Swatch_3-5)"/><path d="m20.445 31.832 3 2a1 1 0 1 0 1.11-1.664l-1.755-1.168 1.752-1.168a1 1 0 1 0 -1.11-1.664l-3 2a1 1 0 0 0 0 1.664z" fill="url(#New_Gradient_Swatch_3-6)"/><path d="m31.168 33.555a1 1 0 0 0 1.387.277l3-2a1 1 0 0 0 0-1.664l-3-2a1 1 0 0 0 -1.11 1.664l1.755 1.168-1.752 1.168a1 1 0 0 0 -.28 1.387z" fill="url(#New_Gradient_Swatch_3-7)"/><path d="m26.684 34.949a1 1 0 0 0 1.264-.633l2-6a1 1 0 1 0 -1.9-.632l-2 6a1 1 0 0 0 .636 1.265z" fill="url(#New_Gradient_Swatch_3-8)"/><path d="m20 36h6v2h-6z" fill="url(#New_Gradient_Swatch_3-9)"/><path d="m28 36h2v2h-2z" fill="url(#New_Gradient_Swatch_3-10)"/><path d="m23 39h12v2h-12z" fill="url(#New_Gradient_Swatch_3-10)"/><path d="m41 39h7v2h-7z" fill="url(#New_Gradient_Swatch_3-12)"/><path d="m23 42h2v2h-2z" fill="url(#New_Gradient_Swatch_3-13)"/><path d="m27 42h12v2h-12z" fill="url(#New_Gradient_Swatch_3-14)"/><path d="m41 42h4v2h-4z" fill="url(#New_Gradient_Swatch_3-15)"/><path d="m37 39h2v2h-2z" fill="url(#New_Gradient_Swatch_3-16)"/></svg>