<svg id="Layer_1" data-name="Layer 1" xmlns="http://www.w3.org/2000/svg" viewBox="0 0 496 496"><defs><style>.cls-1{fill:#82c424;}</style></defs><title>custom-development</title><rect class="cls-1" x="8" y="40" width="112" height="96"/><path class="cls-1" d="M208,352H112a16,16,0,0,0-16,16v80H224V368a16,16,0,0,0-16-16Zm0,0" transform="translate(-72 8)"/><path class="cls-1" d="M560,80H416V16A16,16,0,0,1,432,0H544a16,16,0,0,1,16,16Zm0,0" transform="translate(-72 8)"/><rect class="cls-1" x="400" y="384" width="64" height="80"/><path d="M96,200h32v40h77.51V224H144V200h32a24,24,0,0,0,24-24V16A24,24,0,0,0,176-8H96A24,24,0,0,0,72,16V176a24,24,0,0,0,24,24Zm80-16H96a8,8,0,0,1-8-8V136h96v40a8,8,0,0,1-8,8ZM88,120V40h96v80ZM96,8h80a8,8,0,0,1,8,8v8H88V16a8,8,0,0,1,8-8Zm0,0" transform="translate(-72 8)"/><rect x="48" y="160" width="32" height="16"/><path d="M544-8H432a24,24,0,0,0-24,24V96a24,24,0,0,0,24,24h24v16H440v16h40v80H443.73v16H496V152h40V136H520V120h24a24,24,0,0,0,24-24V16A24,24,0,0,0,544-8ZM432,8H544a8,8,0,0,1,8,8V72H424V16a8,8,0,0,1,8-8Zm72,128H472V120h32Zm40-32H432a8,8,0,0,1-8-8V88H552v8a8,8,0,0,1-8,8Zm0,0" transform="translate(-72 8)"/><path d="M232,368a24,24,0,0,0-24-24H160V272h24V256H144v88H112a24,24,0,0,0-24,24v72H72v24a24,24,0,0,0,24,24H224a24,24,0,0,0,24-24V440H232Zm-128,0a8,8,0,0,1,8-8h96a8,8,0,0,1,8,8v72H104Zm128,96a8,8,0,0,1-8,8H96a8,8,0,0,1-8-8v-8H232Zm0,0" transform="translate(-72 8)"/><rect x="400" y="384" width="16" height="16"/><rect x="448" y="448" width="16" height="16"/><rect x="432" y="384" width="32" height="16"/><rect x="400" y="448" width="32" height="16"/><path d="M512,264H456v16h40v64H440V488H568V344H512ZM456,472V424h96v48Zm96-64H456V360h96Zm0,0" transform="translate(-72 8)"/><path class="cls-1" d="M408,328H232a56,56,0,0,1-11.81-110.72A64.35,64.35,0,0,1,280,176a63.63,63.63,0,0,1,26.1,5.61A64,64,0,0,1,424,216c0,.78,0,1.57-.05,2.37A56,56,0,0,1,408,328Zm0,0" transform="translate(-72 8)"/></svg>