<svg id="Layer_1" data-name="Layer 1" xmlns="http://www.w3.org/2000/svg" viewBox="0 0 496 496"><defs><style>.cls-1{fill:#82c424;}</style></defs><title>digital-marketing</title><rect class="cls-1" x="8" y="8" width="480" height="64"/><rect x="32" y="32" width="16" height="16"/><rect x="64" y="32" width="16" height="16"/><rect x="96" y="32" width="16" height="16"/><path class="cls-1" d="M320,480a103.84,103.84,0,0,0,87.87-48.54,39.86,39.86,0,0,0-30.18-37.28L344,385.75v-1.91A40,40,0,0,0,360,352V336a40,40,0,0,0-43.56-39.85c-20.43,1.77-36.44,20-36.44,41.5V352a40,40,0,0,0,16,31.83v1.91l-33.7,8.44a39.86,39.86,0,0,0-30.17,37.28A103.84,103.84,0,0,0,320,480Zm0,0" transform="translate(-72 8)"/><rect x="384" y="304" width="16" height="16"/><path d="M536,312H488V296h32V280h16Zm0,0" transform="translate(-72 8)"/><path d="M568-8H72V344H212.72a112,112,0,1,0,214.56,0H568ZM320,472a96,96,0,1,1,96-96,96.1,96.1,0,0,1-96,96ZM552,328H421a112.84,112.84,0,0,0-12.88-20.85l61.5-61.49-11.32-11.32-60.91,60.93a111.5,111.5,0,0,0-154.86,0l-60.91-60.93-11.32,11.32,61.5,61.49A111.86,111.86,0,0,0,219,328H88V8H552Zm0,0" transform="translate(-72 8)"/><rect class="cls-1" x="32" y="96" width="144" height="160"/><rect class="cls-1" x="320" y="96" width="144" height="160"/><rect x="64" y="128" width="80" height="16"/><path d="M152,200h48V168H152Zm64,16H136V152h80Zm0,0" transform="translate(-72 8)"/><rect x="352" y="208" width="80" height="16"/><path d="M504,184H424V120h80Zm-64-16h48V136H440Zm0,0" transform="translate(-72 8)"/></svg>