<svg id="Layer_1" data-name="Layer 1" xmlns="http://www.w3.org/2000/svg" viewBox="0 0 496 496"><defs><style>.cls-1{fill:#82c424;}.cls-2{fill:#f7f7f7;}</style></defs><title>seo</title><path d="M518.46,96.43A79.86,79.86,0,0,0,408.55,38.5a80,80,0,0,0-148,60.18l15.09-5.33A64,64,0,1,1,400,72h16a80,80,0,0,0-2.19-18.3,63.8,63.8,0,0,1,89.78,51.19l1.24,7.11H512a40,40,0,0,1,0,80H424.39v16H512a56,56,0,0,0,6.46-111.57Zm0,0" transform="translate(-72 8)"/><path d="M304,72H288a48.05,48.05,0,0,1,48-48V40a32,32,0,0,0-32,32Zm0,0" transform="translate(-72 8)"/><path d="M488,112H472a32,32,0,0,0-32-32V64a48.05,48.05,0,0,1,48,48Zm0,0" transform="translate(-72 8)"/><path class="cls-1" d="M301.63,488H242.37l-7.08-19.72a181.41,181.41,0,0,1-64.8-26.84l-19,8.93-41.9-41.89,8.94-19a181.35,181.35,0,0,1-26.85-64.79L72,317.62V258.37l19.72-7.09a181.42,181.42,0,0,1,26.85-64.79l-8.94-19,41.9-41.89,19,8.93a181.41,181.41,0,0,1,64.8-26.84L242.37,88h59.26l7.08,19.72a181.41,181.41,0,0,1,64.8,26.84l19-8.93,41.9,41.89-8.94,19a181.35,181.35,0,0,1,26.85,64.79L472,258.37v59.25l-19.72,7.1a181.42,181.42,0,0,1-26.85,64.79l8.94,19-41.9,41.89-19-8.93a181.41,181.41,0,0,1-64.8,26.84Zm0,0" transform="translate(-72 8)"/><path d="M272,440c-83.82,0-152-68.18-152-152s68.18-152,152-152,152,68.18,152,152S355.82,440,272,440Zm0-288c-75,0-136,61-136,136s61,136,136,136,136-61,136-136S347,152,272,152Zm0,0" transform="translate(-72 8)"/><path d="M212,392a119.6,119.6,0,0,1-14.26-9.67l9.92-12.56A103.39,103.39,0,0,0,220,378.1Zm0,0" transform="translate(-72 8)"/><path class="cls-2" d="M271.84,408a119.68,119.68,0,0,1-51.27-11.52L227.43,382a104.23,104.23,0,0,0,118.1-20.47q3.24-3.24,6.14-6.68l12.25,10.29q-3.33,4-7.07,7.72a120.24,120.24,0,0,1-85,35.12Zm0,0" transform="translate(-72 8)"/><path class="cls-2" d="M200,344a32,32,0,0,1-32-32h16a16,16,0,1,0,16-16,32,32,0,1,1,32-32H216a16,16,0,1,0-16,16,32,32,0,0,1,0,64Zm0,0" transform="translate(-72 8)"/><path class="cls-2" d="M296,248V232H248V344h48V328H264V296h32V280H264V248Zm0,0" transform="translate(-72 8)"/><path class="cls-2" d="M344,344a32,32,0,0,1-32-32V264a32,32,0,0,1,64,0v48a32,32,0,0,1-32,32Zm0-96a16,16,0,0,0-16,16v48a16,16,0,0,0,32,0V264a16,16,0,0,0-16-16Zm0,0" transform="translate(-72 8)"/></svg>