<svg id="Layer_1" data-name="Layer 1" xmlns="http://www.w3.org/2000/svg" xmlns:xlink="http://www.w3.org/1999/xlink" viewBox="0 0 498 496"><defs><style>.cls-1{fill:none;}.cls-2{fill:#82c424;}.cls-3{clip-path:url(#clip-path);}</style><clipPath id="clip-path" transform="translate(-71 8)"><rect class="cls-1" x="71" y="-8" width="498" height="496"/></clipPath></defs><title>smm</title><path class="cls-2" d="M503,304a64,64,0,1,1-64-64,64,64,0,0,1,64,64Zm0,0" transform="translate(-71 8)"/><rect class="cls-2" x="400" y="40" width="32" height="144"/><g class="cls-3"><rect class="cls-2" x="352" y="72" width="32" height="112"/><rect class="cls-2" x="448" width="32" height="184"/></g><rect class="cls-2" x="304" y="104" width="32" height="80"/><path d="M560.6,292.8a152,152,0,0,0-243.2,0L309,304l8.4,11.2a152,152,0,0,0,243.2,0L569,304Zm-12.8,12.8a136,136,0,0,1-217.6,0L329,304l1.2-1.6a136,136,0,0,1,217.6,0L549,304Zm0,0" transform="translate(-71 8)"/><path d="M439,264a40,40,0,1,0,40,40,40,40,0,0,0-40-40Zm0,64a24,24,0,1,1,24-24,24,24,0,0,1-24,24Zm0,0" transform="translate(-71 8)"/><path d="M343,176c0-75-61-136-136-136S71,101,71,176c0,61.07,40.47,112.85,96,130v22H151v16h16V448a40,40,0,0,0,80,0V344h16V328H247V306c55.53-17.13,96-68.91,96-130ZM87,176A120,120,0,1,1,207,296,120.13,120.13,0,0,1,87,176ZM231,448a24,24,0,0,1-48,0V344h48Zm0-120H183V309.75a129.12,129.12,0,0,0,48,0Zm0,0" transform="translate(-71 8)"/><path d="M311,176A104,104,0,1,0,207,280,104.13,104.13,0,0,0,311,176Zm-192,0a88,88,0,1,1,88,88,88.1,88.1,0,0,1-88-88Zm0,0" transform="translate(-71 8)"/><rect x="128" y="176" width="16" height="16"/><rect x="160" y="176" width="16" height="16"/><rect x="192" y="176" width="16" height="16"/><rect x="96" y="176" width="16" height="16"/><rect x="64" y="176" width="16" height="16"/><rect x="288" y="176" width="208" height="16"/></svg>