<svg id="Layer_1" data-name="Layer 1" xmlns="http://www.w3.org/2000/svg" viewBox="0 0 496 496"><defs><style>.cls-1{fill:#82c424;}</style></defs><title>web-development</title><path d="M552,160V376H88V160a24,24,0,0,1,24-24H240V120H112a40.05,40.05,0,0,0-40,40V400a40.05,40.05,0,0,0,40,40H216v32H184v16H456V472H424V440H528a40.05,40.05,0,0,0,40-40V160ZM408,472H232V440H408Zm120-48H112a24,24,0,0,1-24-24v-8H552v8a24,24,0,0,1-24,24Zm0,0" transform="translate(-72 8)"/><path class="cls-1" d="M568,198.32V121.68l-31.5-7.49a144.27,144.27,0,0,0-7.56-18.35L545.89,68.3,491.7,14.11l-27.53,17a143.42,143.42,0,0,0-18.35-7.56L438.32-8H361.68l-7.49,31.5a144.27,144.27,0,0,0-18.35,7.56l-27.54-17L254.11,68.3l17,27.53a143.42,143.42,0,0,0-7.56,18.35L232,121.68v76.64l31.5,7.49a144.27,144.27,0,0,0,7.56,18.35l-17,27.53,54.2,54.2,27.53-17a143.42,143.42,0,0,0,18.35,7.56l7.5,31.51h76.64l7.49-31.5a145.75,145.75,0,0,0,18.35-7.56l27.54,16.95,54.19-54.19-17-27.53a143.42,143.42,0,0,0,7.56-18.35ZM400,264A104,104,0,1,1,504,160,104,104,0,0,1,400,264Zm0,0" transform="translate(-72 8)"/><path d="M400,272A112,112,0,1,1,512,160,112.12,112.12,0,0,1,400,272Zm0-208a96,96,0,1,0,96,96,96.1,96.1,0,0,0-96-96Zm0,0" transform="translate(-72 8)"/><rect x="248" y="160" width="16" height="16"/><rect x="280" y="160" width="128" height="16"/><rect class="cls-1" x="64" y="208" width="48" height="120"/><rect class="cls-1" x="128" y="272" width="48" height="56"/><rect x="296" y="192" width="96" height="16"/><rect x="264" y="192" width="16" height="16"/><rect x="296" y="128" width="96" height="16"/><rect x="264" y="128" width="16" height="16"/><path d="M264,328H104V160h16V312H264Zm0,0" transform="translate(-72 8)"/></svg>